<?xml version="1.0" encoding="UTF-8" standalone="no"?>
<svg
   xmlns:dc="http://purl.org/dc/elements/1.1/"
   xmlns:cc="http://creativecommons.org/ns#"
   xmlns:rdf="http://www.w3.org/1999/02/22-rdf-syntax-ns#"
   xmlns:svg="http://www.w3.org/2000/svg"
   xmlns="http://www.w3.org/2000/svg"
   xmlns:sodipodi="http://sodipodi.sourceforge.net/DTD/sodipodi-0.dtd"
   xmlns:inkscape="http://www.inkscape.org/namespaces/inkscape"
   width="225"
   height="52"
   viewBox="0 0 225 52"
   version="1.1"
   id="svg8"
   sodipodi:docname="logo-light.svg"
   inkscape:version="1.0.2-2 (e86c870879, 2021-01-15)">
  <metadata
     id="metadata14">
    <rdf:RDF>
      <cc:Work
         rdf:about="">
        <dc:format>image/svg+xml</dc:format>
        <dc:type
           rdf:resource="http://purl.org/dc/dcmitype/StillImage" />
        <dc:title></dc:title>
      </cc:Work>
    </rdf:RDF>
  </metadata>
  <defs
     id="defs12" />
  <sodipodi:namedview
     pagecolor="#ffffff"
     bordercolor="#666666"
     borderopacity="1"
     objecttolerance="10"
     gridtolerance="10"
     guidetolerance="10"
     inkscape:pageopacity="0"
     inkscape:pageshadow="2"
     inkscape:window-width="2400"
     inkscape:window-height="1272"
     id="namedview10"
     showgrid="false"
     inkscape:zoom="4.8888889"
     inkscape:cx="124.25208"
     inkscape:cy="26"
     inkscape:window-x="4792"
     inkscape:window-y="-8"
     inkscape:window-maximized="1"
     inkscape:current-layer="svg8" />
  <path
     fill="#2a2c2f"
     fill-rule="nonzero"
     d="m 74.4,14.352 v 21.28 c 0,4.8 -2.24,6.72 -6.24,6.72 -1.76,0 -3.68,-0.32 -4.16,-0.544 l 0.32,-5.216 c 0.48,0.16 1.12,0.32 1.76,0.32 0.64,0 1.12,-0.16 1.12,-1.28 v -21.28 z m 18.76,0 7.68,22.08 H 93 L 92.136,33.328 H 85.832 L 85,36.432 h -7.52 l 7.68,-22.08 z m -5.792,13.44 h 3.264 L 89,21.872 Z m 41.352,-13.44 1.28,22.08 h -7.104 l -0.256,-12.64 -2.88,12.64 h -6.24 l -2.88,-12.64 -0.256,12.64 h -7.104 l 1.28,-22.08 h 9.28 l 2.784,12 2.816,-12 z m 26.44,11.04 c 0,4.48 -1.6,7.04 -3.68,8.64 -2.08,1.6 -4.96,2.4 -8.8,2.4 h -8.32 v -22.08 h 8.32 c 3.84,0 6.72,0.8 8.8,2.4 2.08,1.6 3.68,4.16 3.68,8.64 z m -7.296,0 c 0,-2.24 -0.608,-3.36 -1.28,-4 -0.64,-0.64 -1.76,-1.12 -3.36,-1.12 H 141.56 V 22.704545 30.352 h 1.664 c 1.6,0 2.72,-0.48 3.36,-1.12 0.64,-0.64 1.28,-1.6 1.28,-3.84 z m 34.376,0.032 c 0,7.2 -5.12,11.392 -12,11.392 -6.88,0 -12,-4.192 -12,-11.392 0,-7.2 5.12,-11.424 12,-11.424 6.88,0 12,4.224 12,11.424 z m -7.296,-0.16 c 0,-3.04 -1.824,-5.152 -4.704,-5.152 -2.88,0 -4.736,2.112 -4.736,5.152 0,3.04 1.856,5.152 4.736,5.152 2.88,0 4.704,-2.112 4.704,-5.152 z m 27.976,3.008 2.08,5.76 c -0.8,0.8 -3.04,2.784 -7.84,2.784 -6.56,0 -11.84,-4.032 -11.84,-11.392 0,-7.36 5.28,-11.392 11.84,-11.392 4.96,0 7.36,2.08 7.36,2.08 l -1.92,6.08 c 0,0 -2.24,-1.92 -4.96,-1.92 -2.72,0 -5.056,1.6 -5.056,5.056 0,3.424 2.496,4.96 5.056,4.96 2.56,0 4.32,-1.056 5.28,-2.016 z m 21.8,0.896 c 0,2.304 -1.12,4.384 -2.88,5.76 -1.76,1.344 -3.968,1.888 -6.528,1.888 -2.56,0 -5.504,-0.704 -8.512,-2.944 l 3.2,-5.44 c 2.048,1.728 4.928,2.4 5.888,2.4 0.96,0 1.632,-0.288 1.632,-0.928 0,-0.64 -0.8,-0.896 -1.6,-1.152 -0.8,-0.224 -2.56,-0.8 -3.2,-1.024 -0.64,-0.256 -1.92,-0.672 -3.04,-1.632 -1.12,-0.96 -2.016,-2.304 -2.016,-4.704 0,-2.4 1.248,-4.256 2.56,-5.344 1.344,-1.12 3.552,-1.92 6.496,-1.92 2.944,0 5.952,1.056 7.872,2.656 l -2.752,5.12 c -1.664,-1.472 -4.096,-2.112 -5.248,-2.112 -1.152,0 -1.792,0.224 -1.792,0.896 0,0.64 1.024,0.864 1.536,1.024 0.512,0.16 1.856,0.544 2.624,0.8 0.768,0.256 2.56,0.896 3.68,1.856 1.12,0.96 2.08,2.464 2.08,4.8 z"
     id="path2"
     sodipodi:nodetypes="cssccsscccccccccccccccccccccccccccccsssccsssscscccsssssssssssssccsssccssscscsccssccsscsccssssss"
     style="display:none" />
  <polygon
     fill="#54D28F"
     points="0 26 26 52 52 26 26 0 26 26"
     id="polygon4" />
  <polygon
     fill="#000"
     points="26 26 26 52 13 26"
     opacity=".1"
     id="polygon6" />
  <text
     xml:space="preserve"
     style="font-style:normal;font-weight:normal;font-size:40px;line-height:1.25;font-family:sans-serif;fill:#000000;fill-opacity:1;stroke:none"
     x="57.272728"
     y="10.636364"
     id="text18"><tspan
       sodipodi:role="line"
       id="tspan16"
       x="57.272728"
       y="10.636364" /></text>
  <text
     xml:space="preserve"
     style="font-style:normal;font-variant:normal;font-weight:bold;font-stretch:normal;font-size:37.3333px;line-height:1.25;font-family:'Berlin Sans FB Demi';-inkscape-font-specification:'Berlin Sans FB Demi Bold';fill:#2a2c2f;fill-opacity:1;stroke:none"
     x="57.068184"
     y="40.704548"
     id="text22"><tspan
       sodipodi:role="line"
       id="tspan20"
       x="57.068184"
       y="40.704548"
       style="font-style:normal;font-variant:normal;font-weight:bold;font-stretch:normal;font-size:37.3333px;font-family:'Berlin Sans FB Demi';-inkscape-font-specification:'Berlin Sans FB Demi Bold';fill:#2a2c2f;fill-opacity:1">HairMore</tspan></text>
  <text
     xml:space="preserve"
     style="font-style:normal;font-variant:normal;font-weight:bold;font-stretch:normal;font-size:37.3333px;line-height:1.25;font-family:'Berlin Sans FB Demi';-inkscape-font-specification:'Berlin Sans FB Demi Bold';fill:#ffffff;fill-opacity:1;stroke:none"
     x="57.079918"
     y="40.74379"
     id="text22-7"><tspan
       sodipodi:role="line"
       id="tspan20-4"
       x="57.079918"
       y="40.74379"
       style="font-style:normal;font-variant:normal;font-weight:bold;font-stretch:normal;font-size:37.3333px;font-family:'Berlin Sans FB Demi';-inkscape-font-specification:'Berlin Sans FB Demi Bold';fill:#ffffff;fill-opacity:1">HairMore</tspan></text>
</svg>
